<svg style="display: none;" aria-hidden="true" xmlns="http://www.w3.org/2000/svg" xmlns:xlink="http://www.w3.org/1999/xlink"><symbol viewBox="0 0 9 15" id="svg-icon-tel"><path d="m8.364 12.633.015-.173c.031-.408-.203-.946-.522-1.198l-1.18-.934c-.32-.252-.894-.34-1.271-.188l-.69.278a5.572 5.572 0 0 1-2.07-5.145l.689-.278c.377-.152.73-.611.785-1.015l.205-1.492c.056-.403-.15-.954-.454-1.224l-.13-.116C3.433.878 2.874.78 2.497.933l-1.032.416c-.183.073-.422.406-.423.407A9.28 9.28 0 0 0 .93 8.95a9.284 9.284 0 0 0 5.048 5.102c.012.005.424.085.608.011l1.031-.415c.378-.152.714-.609.747-1.015Z"/></symbol></svg>